HIERARCHY
ROOT Hips
{
  OFFSET 50.7751 83.8088 55.7295
  CHANNELS 6 Xposition Yposition Zposition Zrotation Xrotation Yrotation
  JOINT RightUpLeg
  {
    OFFSET -8.9458 -8.66707 0.101652
    CHANNELS 3 Zrotation Xrotation Yrotation
    JOINT RightLeg
    {
      OFFSET 0 -44.4227 1.3727
      CHANNELS 3 Zrotation Xrotation Yrotation
      JOINT RightFoot
      {
        OFFSET 0.253549 -42.0924 -1.46059
        CHANNELS 3 Zrotation Xrotation Yrotation
        JOINT RightToes
        {
          OFFSET 0.04 -4.41509 8.4991
          CHANNELS 3 Zrotation Xrotation Yrotation
          End Site
          {
            OFFSET -0.08 -0.137448 9.77979
          }
        }
      }
    }
  }
  JOINT Spine
  {
    OFFSET 0 11.8905 0
    CHANNELS 3 Zrotation Xrotation Yrotation
    JOINT Spine1
    {
      OFFSET 0 25.6574 0.127663
      CHANNELS 3 Zrotation Xrotation Yrotation
      JOINT HEad
      {
        OFFSET 0 8.73416 0.011341
        CHANNELS 3 Zrotation Xrotation Yrotation
        End Site
        {
          OFFSET -0.29 12.7742 2.51395
        }
      }
      JOINT LeftShoulder1
      {
        OFFSET 8.99 -0.362252 -0.22
        CHANNELS 3 Zrotation Xrotation Yrotation
        JOINT LeftArm
        {
          OFFSET 10.2827 -0.00338 0.322123
          CHANNELS 3 Zrotation Xrotation Yrotation
          JOINT LeftForeArm
          {
            OFFSET 32.7669 0.099144 -1.42434
            CHANNELS 3 Zrotation Xrotation Yrotation
            JOINT LeftHand
            {
              OFFSET 27.5643 0.085362 1.02216
              CHANNELS 3 Zrotation Xrotation Yrotation
              End Site
              {
                OFFSET 16.7443 -0.6 1.50291
              }
            }
          }
        }
      }
      JOINT RightShoulder
      {
        OFFSET -8.99 -0.362252 -0.22
        CHANNELS 3 Zrotation Xrotation Yrotation
        JOINT RightArm
        {
          OFFSET -10.2827 -0.00338 0.322123
          CHANNELS 3 Zrotation Xrotation Yrotation
          JOINT RightForeArm
          {
            OFFSET -32.8971 0.099144 -1.42434
            CHANNELS 3 Zrotation Xrotation Yrotation
            JOINT RightHand
            {
              OFFSET -27.4921 0.085362 1.02216
              CHANNELS 3 Zrotation Xrotation Yrotation
              End Site
              {
                OFFSET -16.6312 -0.6 1.50291
              }
            }
          }
        }
      }
    }
  }
  JOINT LeftUpLeg
  {
    OFFSET 8.9458 -8.66707 0.101652
    CHANNELS 3 Zrotation Xrotation Yrotation
    JOINT LeftLeg
    {
      OFFSET 0 -44.4227 1.3727
      CHANNELS 3 Zrotation Xrotation Yrotation
      JOINT LeftFoot
      {
        OFFSET -0.253549 -42.0924 -1.46059
        CHANNELS 3 Zrotation Xrotation Yrotation
        JOINT LeftToes
        {
          OFFSET -0.04 -4.41509 8.4991
          CHANNELS 3 Zrotation Xrotation Yrotation
          End Site
          {
            OFFSET 0.08 -0.047448 9.77979
          }
        }
      }
    }
  }
}
MOTION
Frames:	14
Frame Time:	0.0166667
51.4868 88.1452 37.439 -1.82344 -1.23867 -92.3554 -31.4622 -3.00251 13.539 10.7901 27.3137 -21.1357 15.7025 12.9631 -2.86572 -24.9604 -21.3781 -0.987792 3.37533 9.46747 -5.39827 -0.808362 19.2783 -9.79081 7.30171 -18.1678 -42.1788 7.95139e-016 1.59028e-015 1.59028e-015 -62.1202 -2.37506 -67.045 20.5775 15.6347 -130.152 -6.34283 8.67011 24.2061 29.162 -2.75595 -11.2022 24.77 -60.3 27.7584 -14.0222 10.5864 145.412 71.5771 -19.7043 -42.9992 43.6802 -19.492 -7.67485 -35.2947 40.776 0.0635755 -39.2834 32.3149 13.9969 30.7499 -51.2245 -10.5757 
50.6602 89.244 39.0149 -0.783345 -1.73818 -92.3678 -31.8486 -3.03609 14.1434 9.05991 25.4904 -20.2817 16.4866 13.6286 -3.1 -19.5207 -16.925 -0.229905 3.10096 9.07273 -4.63042 -1.13246 18.4897 -8.44251 6.9534 -17.6162 -43.8086 0 1.39149e-015 -0 -59.0764 0.774208 -63.8479 21.0698 12.2848 -130.264 -6.29724 8.70945 23.7037 30.7958 -3.21697 -12.1663 24.4449 -55.0737 26.488 -18.2652 1.25107 148.761 72.3964 -22.0872 -45.2945 42.9434 -20.0573 -7.82658 -33.3542 39.518 3.54687 -32.6861 33.1757 11.7397 31.2393 -50.9334 -9.31835 
49.9561 90.3295 40.7062 0.348676 -2.02444 -92.9013 -32.2408 -4.13346 14.7347 8.09314 24.1012 -20.4021 16.9182 15.9023 -3.50239 -15.6454 -13.7213 0.444943 2.84331 8.83298 -3.79719 -1.36834 18.0012 -6.95098 6.68574 -17.606 -45.1112 7.95139e-016 5.1684e-015 -1.59028e-015 -56.2664 3.7438 -61.4562 21.9049 8.72738 -130.599 -6.32681 8.71238 23.5771 31.979 -3.62158 -13.0144 26.751 -52.7013 26.6446 -19.9211 -2.8996 150.438 67.2188 -20.7372 -47.3121 42.287 -20.2027 -7.73807 -30.3947 37.8078 7.20123 -24.5918 33.1966 8.6928 31.4203 -50.1379 -7.98452 
49.3959 91.2785 42.4847 1.42294 -2.10662 -93.8181 -32.7514 -6.1253 14.9676 8.27113 23.3024 -21.0024 16.7593 19.2712 -3.94186 -13.9199 -12.4284 1.50372 2.6663 8.81645 -2.98265 -1.52851 17.9644 -5.4557 6.48951 -18.2793 -46.1525 -2.38542e-015 -9.93923e-016 3.18055e-015 -53.8646 6.13742 -59.9863 22.8494 5.41701 -131.043 -6.40874 8.68519 23.7881 32.4359 -3.8314 -13.4823 32.0483 -54.6857 28.1654 -19.0271 -1.0247 151.706 59.2903 -16.0229 -46.823 41.6359 -19.8173 -7.54822 -26.4254 35.4025 10.0632 -16.8304 32.8045 5.78143 31.2042 -48.8857 -6.76557 
48.9701 91.9464 44.3389 2.32202 -2.02605 -94.9845 -33.3652 -8.79422 14.3281 9.44364 23.3667 -21.2439 16.5654 23.0124 -4.41724 -14.9609 -13.7025 3.03609 2.66343 9.01397 -2.2757 -1.67757 18.3751 -4.10739 6.35128 -19.4979 -47.0007 -1.59028e-015 1.59028e-015 -0 -51.98 7.70349 -59.3055 23.6981 2.70927 -131.522 -6.53177 8.63576 24.2287 32.027 -3.73656 -13.3394 40.2586 -59.6319 31.2953 -16.6002 5.41742 152.388 50.7918 -10.3412 -44.3387 40.9881 -18.8345 -7.54097 -21.9544 32.0925 12.2067 -10.7172 32.9017 3.59911 30.8295 -47.6282 -5.79665 
48.6411 92.2565 46.2727 2.96802 -1.83184 -96.2765 -33.9961 -11.8515 12.4589 11.1574 24.4542 -20.625 17.1958 26.4716 -5.09437 -18.798 -17.6812 4.63271 2.8561 9.36496 -1.74058 -1.88496 19.1084 -3.02995 6.2919 -20.9258 -47.735 -7.95139e-016 -1.78906e-015 1.59028e-015 -50.7539 8.35276 -59.2244 24.2865 0.964374 -131.96 -6.66779 8.58041 24.7085 30.8988 -3.35749 -12.5654 50.3062 -64.5752 35.9707 -13.8369 13.3397 152.027 42.0489 -5.30839 -41.6851 40.3796 -17.2821 -8.08346 -17.7691 27.9441 14.1214 -6.56248 33.9323 2.17217 30.3335 -46.5424 -5.26792 
48.3497 92.2171 48.2931 3.34361 -1.53291 -97.5729 -34.5412 -15.0025 9.43555 13.0378 26.5156 -19.3248 19.0109 29.0853 -6.07414 -24.5347 -23.4789 5.66 3.19648 9.78784 -1.40731 -2.14375 19.9797 -2.29422 6.35328 -22.1699 -48.4388 -1.59028e-015 8.54774e-015 3.18055e-015 -50.3151 8.19348 -59.6377 24.5101 0.497283 -132.205 -6.71306 8.55468 24.974 29.4704 -2.83609 -11.37 60.1482 -67.8395 41.1611 -11.4875 20.0106 150.975 33.4764 -1.24562 -39.4482 39.841 -15.3046 -9.42764 -14.4335 23.4334 16.0309 -3.98963 35.5194 1.28077 29.6735 -45.4803 -5.08698 
48.0303 91.8306 50.351 3.52121 -1.08319 -98.7943 -34.8944 -18.1698 5.77561 15.088 29.547 -18.0146 21.5798 30.2608 -7.1415 -30.686 -29.4212 5.75924 3.6558 10.2214 -1.26929 -2.34655 20.8133 -1.90522 6.5641 -22.9379 -49.1535 7.95139e-016 3.37934e-015 -1.59028e-015 -50.7311 7.53134 -60.5547 24.3603 1.44084 -132.052 -6.53845 8.59385 24.8575 28.2518 -2.34408 -10.102 68.2868 -69.6412 45.978 -9.9689 24.5215 150.035 25.8461 1.87496 -37.4965 39.4281 -13.1447 -11.4557 -12.0366 19.3432 17.8899 -2.35568 36.916 0.682505 29.247 -44.4851 -4.5206 
47.6058 91.1715 52.4929 3.59205 -0.498919 -99.9393 -35.1429 -21.106 2.16163 17.5092 32.8817 -17.5146 24.0597 30.0548 -7.94735 -35.843 -33.996 5.07179 4.10464 10.608 -1.28644 -2.37997 21.4785 -1.83413 6.90858 -23.1294 -49.8254 6.78638e-031 8.15017e-015 -4.77083e-015 -52.0273 6.748 -61.9905 23.919 3.68438 -131.373 -6.10867 8.69883 24.4038 27.6354 -2.00607 -9.11731 74.8236 -70.8021 50.7121 -9.29763 27.3525 149.814 19.9363 4.03409 -35.8968 38.9657 -11.0232 -13.6504 -10.3321 16.437 19.9051 -0.522615 37.5901 -0.0370462 30.0657 -44.1628 -2.36572 
47.0397 90.3137 54.6592 3.63838 0.233091 -101.059 -35.2311 -23.7302 -0.839192 20.4976 36.0377 -18.8705 25.5978 29.0018 -8.23733 -39.1917 -36.4756 3.87044 4.45045 10.9205 -1.44286 -2.18532 21.9348 -2.06787 7.33591 -22.8385 -50.2839 9.93129e-032 3.57812e-015 -1.59028e-015 -54.1518 6.14195 -63.8357 23.3151 6.87252 -130.224 -5.51202 8.83452 23.8477 27.7581 -1.87212 -8.63402 80.6243 -71.7914 56.0683 -9.14665 29.267 150.505 16.1863 5.2848 -34.8806 38.4252 -8.90324 -15.2916 -8.9904 14.7902 22.4567 2.77865 37.4939 -1.3488 33.1711 -45.0715 2.37803 
46.3381 89.3185 56.771 3.63519 1.03947 -102.259 -35.175 -26.0478 -2.81825 24.1073 38.712 -23.2537 25.3884 27.9009 -7.92227 -40.4827 -36.7039 2.22673 4.59778 11.1777 -1.74684 -1.80622 22.2504 -2.63418 7.81912 -22.3132 -50.278 3.18055e-015 -1.59028e-015 -1.59028e-015 -56.8765 5.80014 -65.8521 22.671 10.445 -128.838 -4.9019 8.95805 23.4585 28.4799 -1.92407 -8.65064 85.9213 -72.494 61.8948 -9.20818 30.4869 151.99 14.5447 5.79771 -34.4838 37.7937 -6.69356 -15.8652 -7.8167 14.2074 25.6281 7.8695 36.5226 -3.29936 38.4959 -46.5759 9.66779 
45.5419 88.2484 58.7486 3.45555 1.76647 -103.663 -35.0962 -28.1532 -3.54749 28.1933 40.8689 -31.0659 22.8337 27.0871 -6.93771 -39.1452 -34.6876 0.837778 4.50354 11.4416 -2.20399 -1.382 22.5789 -3.54978 8.38343 -21.8697 -49.6159 -4.41391e-032 -7.95139e-016 -3.18055e-015 -59.8108 5.57661 -67.8089 22.0952 13.7729 -127.548 -4.46047 9.0354 23.3794 29.555 -2.11925 -9.05066 89.6027 -72.5288 66.6922 -9.36798 30.6925 153.986 14.4996 5.80998 -34.4841 37.0513 -4.43306 -15.3466 -6.84553 14.5906 28.9135 13.4878 34.5852 -5.2467 44.368 -47.4194 17.8392 
44.7002 87.1898 60.5267 2.95677 2.22671 -105.363 -35.1454 -30.2224 -3.09188 32.2321 42.7415 -40.6445 18.5283 26.2376 -5.46174 -34.6508 -30.8629 1.23273 4.21109 11.7794 -2.77327 -1.11119 23.0673 -4.72896 9.07748 -21.7506 -48.3191 -1.59028e-015 -9.54166e-015 -0 -62.4917 5.26136 -69.5842 21.7156 16.3293 -126.684 -4.31932 9.04853 23.6101 30.8393 -2.44169 -9.76819 90.0416 -71.673 68.6218 -9.58478 29.5074 156.182 15.3869 5.54354 -34.6405 36.179 -2.2788 -14.1399 -6.33937 15.9749 31.6679 17.8654 32.0579 -6.46871 49.0439 -47.3465 24.7891 
43.8253 86.2887 62.0244 2.11318 2.31753 -107.389 -35.2834 -32.3776 -1.75715 35.3192 44.5484 -48.9256 14.2643 25.6913 -4.11468 -28.9288 -26.6469 3.33572 3.78511 12.1849 -3.38136 -1.16955 23.7157 -5.99763 9.90262 -21.9704 -46.6171 -3.18055e-015 -2.38542e-015 -0 -64.4519 4.76244 -71.0355 21.6078 17.7801 -126.435 -4.40649 9.01416 24.0423 32.2089 -2.86058 -10.6942 86.5422 -69.9726 66.8852 -9.8044 26.6416 158.337 16.8771 5.08611 -34.9173 35.2672 -0.230542 -12.8084 -6.63561 17.9959 33.5903 20.1482 29.5691 -6.81216 51.9828 -46.8913 29.4991 
